<?xml version="1.0" encoding="UTF-8" standalone="no"?>
<!-- Created with Inkscape (http://www.inkscape.org/) -->

<svg
   version="1.1"
   id="svg1"
   width="2276"
   height="824"
   viewBox="0 0 2276 824"
   sodipodi:docname="logo.svg"
   inkscape:version="1.4.3 (0d15f75042, 2025-12-25)"
   xmlns:inkscape="http://www.inkscape.org/namespaces/inkscape"
   xmlns:sodipodi="http://sodipodi.sourceforge.net/DTD/sodipodi-0.dtd"
   xmlns="http://www.w3.org/2000/svg"
   xmlns:svg="http://www.w3.org/2000/svg">
  <defs
     id="defs1" />
  <sodipodi:namedview
     id="namedview1"
     pagecolor="#ffffff"
     bordercolor="#000000"
     borderopacity="0.25"
     inkscape:showpageshadow="2"
     inkscape:pageopacity="0.0"
     inkscape:pagecheckerboard="0"
     inkscape:deskcolor="#d1d1d1"
     inkscape:zoom="0.20768932"
     inkscape:cx="1210.9434"
     inkscape:cy="650.00936"
     inkscape:window-width="1440"
     inkscape:window-height="869"
     inkscape:window-x="0"
     inkscape:window-y="0"
     inkscape:window-maximized="1"
     inkscape:current-layer="g1" />
  <g
     inkscape:groupmode="layer"
     inkscape:label="Image"
     id="g1">
    <g
       id="g2754">
      <path
         style="fill:#017cc2"
         d="m 1168.5,700.01048 c -58.8885,-8.26889 -64.3729,-96.33696 -6.9146,-111.03233 14.5469,-3.72046 31.3397,-2.36602 44.2008,3.56504 l 7.2862,3.36014 6.3515,6.09897 c 10.1444,9.74119 15.0908,21.01556 16.2329,36.99988 2.8361,39.69314 -26.8563,66.66713 -67.1568,61.0083 z m 30.2439,-3.51196 c 18.2831,-5.76019 30.6575,-19.80706 34.8787,-39.59258 l 1.5801,-7.40594 -0.5502,-9.5 c -1.4334,-24.75029 -13.632,-41.64098 -35.5439,-49.21554 L 1192.5,588.5 l -14,0.0472 -14,0.0472 -6.5,2.2543 c -48.1631,16.70372 -47.3485,90.3516 1.1732,106.06615 10.8238,3.50548 27.686,3.3281 39.5707,-0.41625 z m -25.0903,-22.5865 c -31.4247,-5.01741 -25.9985,-60.87134 5.9171,-60.90644 l 5.0707,-0.006 5.4293,2.75 5.4293,2.75 3.2364,4.84266 c 15.5971,23.33805 0.096,54.58954 -25.0828,50.56936 z m 17.9141,-3.95387 c 7.7975,-4.81909 11.5448,-13.41403 11.554,-26.50048 l 0.01,-8.04233 -2.1006,-5.61435 -2.1006,-5.61436 -4.3583,-4.0174 c -11.9622,-11.0263 -30.8862,-6.98929 -37.6759,8.03727 l -2.3919,5.2935 0.042,10.5 0.042,10.5 1.5833,3.57273 c 6.1505,13.87931 23.0141,19.54102 35.4011,11.88542 z M 148.46257,696.75 C 148.2015,696.0625 148.10312,563.2 148.24395,401.5 l 0.25605,-294 138.12464,-0.25351 138.12464,-0.25351 1.03079,1.25351 c 0.56694,0.68943 18.22326,50.97851 39.23628,111.75351 21.01302,60.775 38.67485,111.07958 39.24851,111.78795 l 1.04303,1.28796 8.09605,-0.28796 L 521.5,332.5 l 3.15123,-9 c 1.73318,-4.95 19.17605,-55.08536 38.76193,-111.41191 19.58588,-56.32654 36.11042,-103.01404 36.72121,-103.75 L 601.24489,107 l 137.17755,0 137.17756,0 1.2,1.2 1.2,1.2 -0.0153,293.05 c -0.008,161.1775 -0.37379,293.61461 -0.81192,294.3047 l -0.79661,1.25469 L 772.93808,697.7547 669.5,697.5 669,598 668.5,498.5 h -8.45555 -8.45554 L 600.73656,596 c -27.96879,53.625 -51.51167,98.5125 -52.31751,99.75 l -1.46516,2.25 -33.72694,-0.0153 c -18.54982,-0.008 -34.23471,-0.34592 -34.8553,-0.75 C 477.75106,696.83061 454.38712,652.625 426.4518,599 398.51647,545.375 374.99198,500.7125 374.17516,499.75 L 372.69002,498 h -7.30982 -7.30983 l -1.02946,1.92355 -1.02945,1.92355 0.0137,97.14056 c 0.008,53.42731 -0.24663,97.56171 -0.56475,98.07645 C 355.10724,697.63549 314.77669,698 251.9096,698 H 148.93723 Z m 875.00643,0.0268 c -0.2689,-0.70227 -0.3719,-25.12685 -0.2289,-54.27685 l 0.2599,-53 25.5,-0.29083 c 43.5066,-0.4962 54.599,3.07441 63.082,20.30586 l 3.166,6.43108 0.4649,8.77695 0.4649,8.77694 -1.9922,6.27614 c -3.6369,11.45783 -11.9726,19.49989 -24.1355,23.28541 l -6.2283,1.93845 -13.6609,0.0153 c -7.5135,0.008 -14.2112,0.36493 -14.8837,0.79223 l -1.2229,0.77692 -0.2771,15.45777 -0.2772,15.45777 -14.7711,0.27685 -14.7711,0.27686 z M 1053,681.62244 v -15.37755 l 1.25,-1.02159 c 0.6875,-0.56187 8.45,-1.21262 17.25,-1.44611 l 16,-0.42453 5.7016,-2.23008 c 7.9336,-3.10308 14.8399,-9.59544 18.2206,-17.12848 l 2.7406,-6.10686 0.5522,-7.30228 c 1.4571,-19.26625 -7.9681,-33.39924 -25.497,-38.23258 L 1082.5,590.5 h -29 -29 l -0.2588,53.25 -0.2587,53.25 H 1038.4912 1053 Z m 0.6449,-43.10539 C 1053.2902,637.59271 1053,632.16406 1053,626.4534 v -10.38303 l 2.1867,-1.17031 2.1868,-1.17031 9.6645,0.53255 c 17.7709,0.97923 25.2105,11.94956 15.0174,22.14432 l -3.0928,3.09338 -12.3364,0.34884 -12.3364,0.34884 z m 25.3412,-1.2686 c 4.4943,-2.25412 6.2085,-5.61787 5.6649,-11.11615 l -0.4319,-4.3677 -2.5285,-2.52854 c -3.7718,-3.77178 -23.4945,-6.03218 -26.4906,-3.03606 -1.2811,1.28108 -1.7541,20.91254 -0.5333,22.13333 0.3666,0.36667 5.2041,0.66597 10.75,0.66512 l 10.0833,-0.002 z m 160.6904,60.09475 C 1239.3044,696.97111 1239,691.63208 1239,685.47869 v -11.18798 l 18.6825,-20.89536 c 10.2753,-11.49244 21.5253,-23.98763 25,-27.76708 3.4746,-3.77946 6.3175,-7.25881 6.3175,-7.73191 0,-0.47309 -10.6875,-0.98081 -23.75,-1.12826 L 1241.5,616.5 V 603 589.5 h 45 45 l 0.2806,11.62198 0.2807,11.62198 -17.7199,19.87802 c -9.7459,10.93291 -21.0096,23.47279 -25.0306,27.86641 -4.0209,4.39361 -7.3108,8.5682 -7.3108,9.27687 v 1.28849 l 24.2523,-0.67784 24.2522,-0.67784 1.2794,1.54157 1.2794,1.54157 -0.2816,12.3594 -0.2817,12.35939 -46.0735,0.25987 c -25.3404,0.14293 -46.3779,-0.0446 -46.75,-0.41667 z m 92.1037,-13.01624 0.2801,-12.17304 -2.188,-0.69444 c -1.2034,-0.38195 -12.6354,-0.368 -25.4044,0.031 l -23.2164,0.72545 -0.7349,-1.18913 c -0.8757,-1.41688 -1.2742,-0.9398 27.7388,-33.21375 l 22.7554,-25.31305 -0.2554,-11 -0.2554,-11 -44.25,-0.2604 -44.25,-0.2604 V 602.9896 616 h 23.941 c 13.9383,0 24.1848,0.39448 24.5245,0.94417 0.3209,0.5193 -5.6675,7.8318 -13.3076,16.25 -7.6401,8.41821 -19.1195,21.15583 -25.5098,28.30583 l -11.6188,13 -0.015,11.26009 -0.015,11.26009 45.75,-0.26009 45.75,-0.26009 z m 11.9127,13.03265 C 1343.3118,696.97849 1343,672.98167 1343,644.03333 V 591.4 l 1.2,-1.2 1.2,-1.2 14.55,0.0153 c 8.0025,0.008 15.0721,0.34751 15.7102,0.75353 1.2914,0.82166 22.0192,35.30642 30.3429,50.48116 2.9414,5.3625 5.7124,9.75 6.1578,9.75 0.4454,0 0.9289,-13.6125 1.0744,-30.25 L 1413.5,589.5 h 14 14 v 54 54 l -16.1444,0.27426 -16.1443,0.27427 -13.9721,-23.77427 c -7.6847,-13.07584 -15.6589,-26.83502 -17.7206,-30.57595 -5.0759,-9.21017 -5.0186,-9.48573 -5.0186,24.13661 V 697.5 l -14.0571,0.27628 c -7.7313,0.15195 -14.3688,-0.0356 -14.75,-0.41667 z m 28.03,-31.35961 -0.5915,-31 h 1.3202 c 0.7261,0 5.86,7.9875 11.4088,17.75 5.5488,9.7625 13.6116,23.6 17.9173,30.75 l 7.8287,13 15.7056,0.27544 15.7056,0.27544 -0.2588,-53.27544 L 1440.5,590.5 1427.25,590.22097 1414,589.94195 v 31.61236 31.61236 l -1.1554,-0.38513 c -0.6354,-0.21181 -5.0701,-7.33681 -9.8548,-15.83333 C 1398.2051,628.45169 1390.0626,614.525 1384.8952,606 L 1375.5,590.5 h -15.5 -15.5 l -0.26,52 c -0.143,28.6 -0.045,52.5625 0.2186,53.25 l 0.4786,1.25 h 13.6886 13.6886 z m 76.8587,31.13197 c -0.6135,-0.99256 35.9495,-104.81193 37.6416,-106.88197 l 1.0217,-1.25 h 17.3545 17.3545 l 1.4271,2.25 c 1.8429,2.90548 38.619,103.03858 38.619,105.15089 V 698 h -15.441 -15.441 l -0.809,-1.24846 c -0.4449,-0.68666 -1.7109,-3.72416 -2.8131,-6.75 L 1525.4918,684.5 h -20.9108 -20.9107 l -2.1691,6.5 -2.1692,6.5 -15.0911,0.27564 c -8.431,0.154 -15.3419,-0.13008 -15.6593,-0.64367 z m 31.9155,-6.13351 c 1.1016,-3.02584 2.367,-6.06334 2.8119,-6.75 l 0.809,-1.24846 20.191,0.0153 c 23.1088,0.0175 21.7707,-0.3934 24.3732,7.48469 l 1.9821,6 15.1679,0.27605 15.1678,0.27604 -0.05,-1.27604 c -0.027,-0.70183 -8.6899,-24.67605 -19.25,-53.27605 l -19.2003,-52 h -17.9207 -17.9208 l -18.3131,51.5 c -10.0722,28.325 -18.5796,52.29973 -18.9053,53.27717 l -0.5921,1.77717 14.8231,-0.27717 14.8232,-0.27717 z m 11.137,-32.78153 c -0.5946,-0.96209 10.9203,-38.17135 12.2126,-39.46358 1.4866,-1.48667 14.8096,37.37565 13.5256,39.4533 -0.6363,1.02957 -25.1022,1.03934 -25.7382,0.0103 z m 24.3431,-1.96693 c -0.037,-2.86148 -10.5196,-34.59759 -11.5391,-34.93583 -0.8716,-0.28917 -11.5368,32.6638 -11.4688,35.43583 L 1493,658 h 11.5 11.5 z m 52.6401,40.19495 C 1568.2778,695.56026 1568,671.56323 1568,643.11821 V 591.4 l 1.2,-1.2 1.2,-1.2 14.55,0.0153 c 8.0025,0.008 15.0634,0.34592 15.6909,0.75 1.3258,0.85379 21.2105,33.76401 29.8991,49.48469 3.2677,5.9125 6.2765,10.75 6.686,10.75 0.4096,0 0.8638,-13.6125 1.0093,-30.25 L 1638.5,589.5 h 14 14 v 54 54 l -15.5728,0.27449 -15.5729,0.2745 -1.5271,-1.7745 c -1.8598,-2.16099 -21.357,-34.85494 -29.2782,-49.09518 -3.1575,-5.67638 -6.0221,-10.03951 -6.3658,-9.69583 -0.3437,0.34367 -0.638,13.98798 -0.654,30.32069 L 1597.5,697.5 l -14.1327,0.27674 -14.1328,0.27674 z m 28.2599,-30.11045 -0.3772,-30.66551 1.1632,-0.38889 c 0.6397,-0.21388 3.7488,4.24809 6.9091,9.91551 3.1603,5.66741 11.2232,19.52939 17.9175,30.80439 l 12.1714,20.5 15.6694,0.27539 15.6694,0.2754 V 643.52539 590 h -13.5 -13.5 v 31.58333 31.58334 l -1.1598,-0.38659 c -0.6378,-0.21262 -3.403,-4.41262 -6.1448,-9.33333 -8.6413,-15.50879 -28.9074,-49.87169 -30.4889,-51.69675 L 1599.69,590 h -14.738 -14.738 l -0.607,1.58179 c -0.8313,2.16618 -0.7733,103.91859 0.06,104.75154 0.3666,0.36667 6.7239,0.66667 14.1272,0.66667 h 13.4605 z M 1608,581.99661 c 0,-0.55186 2.8118,-5.50186 6.2483,-11 L 1620.4967,561 h 14.2516 c 16.9259,0 16.6465,-0.71503 4.65,11.9018 L 1629.7966,583 h -10.8983 C 1612.2749,583 1608,582.60642 1608,581.99661 Z m 30.2999,-9.4206 c 4.785,-5.18319 8.7001,-9.69625 8.7001,-10.02902 0,-0.33277 -5.9125,-0.47948 -13.139,-0.32602 l -13.139,0.27903 -5.861,9.30042 c -3.2235,5.11523 -5.861,9.50273 -5.861,9.75 0,0.24727 4.6349,0.44958 10.2999,0.44958 h 10.2999 z M 1207.5472,538.9572 c -21.1198,-3.32059 -35.13,-15.87427 -35.8194,-32.09547 L 1171.5,501.5 h 14.3422 14.3421 l 1.6579,5 1.6578,5 4,1.97762 4,1.97762 8.5419,0.0224 8.5419,0.0224 2.7527,-1.8023 c 10.4282,-6.8276 4.0182,-14.16887 -15.4289,-17.67063 C 1184.6973,490.40717 1173,480.62394 1173,460.14063 c 0,-44.53813 86.2242,-46.9601 90.1556,-2.53241 L 1263.5,461.5 h -14.3688 -14.3687 l -1.1313,-3.40634 C 1229.9887,447.12523 1205,446.9721 1205,457.91821 c 0,6.84918 2.0134,8.04376 19.3837,11.50063 30.442,6.05826 39.5959,12.28473 42.6933,29.03966 5.0797,27.47871 -22.5947,46.30586 -59.5298,40.4987 z m 31.9229,-2.49144 c 12.0886,-3.14867 20.5199,-9.63516 24.6305,-18.94907 l 2.1994,-4.98332 v -8.28292 -8.28293 l -2.9104,-5.6908 c -5.282,-10.32814 -13.2416,-14.50922 -36.8896,-19.37773 -15.4183,-3.17422 -18.5631,-4.20623 -20.9902,-6.88816 l -1.6348,-1.80642 0.3125,-4.25223 0.3125,-4.25224 2.8233,-2.09997 2.8234,-2.09997 h 8.3533 8.3533 l 2.8234,2.06453 c 1.5528,1.1355 3.654,3.73576 4.6692,5.77836 l 1.8459,3.71382 13.1541,-0.27835 13.1541,-0.27836 -0.3057,-3 c -3.6386,-35.70419 -74.9804,-42.92442 -86.6192,-8.76639 -8.1178,23.82449 5.125,39.45946 38.9249,45.95625 16.452,3.16229 19.1751,4.28824 21.0137,8.68877 l 1.4418,3.45061 -1.0862,3.11576 c -0.6196,1.77757 -2.4354,3.85433 -4.2277,4.83538 L 1228.5,516.5 l -9.0598,-0.0468 -9.0598,-0.0469 -3.4299,-2.00321 c -3.4017,-1.98666 -5.0831,-4.32822 -6.9527,-9.6822 l -0.9704,-2.77912 -13.2637,0.27912 -13.2637,0.27912 0.1172,3.5 c 0.8205,24.5017 33.1634,39.24078 66.8529,30.46576 z m 705.4264,2.36676 C 1916.293,536.15412 1897.966,516.40175 1896.3403,486.5 l -0.5437,-10 1.5943,-7.5 c 5.2564,-24.72728 24.0572,-40.51701 50.6091,-42.50369 l 8.5,-0.63599 8.4722,1.52757 c 20.7228,3.7364 35.5029,16.28181 41.8407,35.51449 l 2.5036,7.59762 0.064,12 0.064,12 -1.8109,6 c -8.2124,27.20974 -31.2431,41.28158 -62.737,38.33252 z m 20.6063,-29.28127 c 17.6864,-10.36495 16.4591,-45.60725 -1.8858,-54.14909 -12.5379,-5.83798 -25.955,-1.30254 -32.3903,10.94902 l -2.7045,5.14882 -0.01,11.5 -0.01,11.5 1.8623,3.5 c 3.5551,6.68112 6.9195,10.22824 12.0093,12.66155 l 5.117,2.44633 6.6752,-0.41506 6.6751,-0.41507 z m -920.4852,25.22241 c -2.3334,-5.52002 -28.1878,-103.8877 -27.664,-105.25269 l 0.5836,-1.52097 14.2814,0.0153 c 7.8548,0.008 14.8513,0.37707 15.5479,0.81921 1.1057,0.70182 4.8029,16.26312 13.4178,56.47429 2.8495,13.30041 3.7498,13.44652 6.0501,0.98181 4.9821,-26.99708 11.0567,-55.92858 11.9765,-57.04062 l 1.034,-1.25 H 1094 h 13.7551 l 1.0545,1.27061 c 0.8752,1.05457 4.8041,20.09086 12.4926,60.52954 1.5281,8.03738 2.7312,8.23111 4.3462,0.69985 10.3761,-48.3871 13.3092,-60.8586 14.4883,-61.60567 0.7498,-0.47504 7.7899,-0.8706 15.6447,-0.87902 l 14.2814,-0.0153 0.542,1.41257 c 0.5735,1.49441 -27.1551,105.53687 -28.4801,106.8624 -0.426,0.42624 -8.3875,0.65124 -17.6922,0.5 L 1107.515,536.5 1103.8771,519 c -2.0008,-9.625 -4.8631,-24.1375 -6.3607,-32.25 -1.4975,-8.1125 -3.05,-14.75 -3.4498,-14.75 -0.3999,0 -3.6159,14.5125 -7.1468,32.25 l -6.4198,32.25 -17.2607,0.27366 -17.2606,0.27366 z M 1081.8291,524.5 c 1.2811,-6.05 4.2159,-20.9 6.5219,-33 l 4.1927,-22 h 1.4538 1.4537 l 1.7974,10 c 3.194,17.76996 10.6573,54.53868 11.2721,55.53353 0.6355,1.02826 33.4793,1.39999 33.4793,0.37892 0,-0.32315 6.3095,-23.97577 14.0211,-52.56138 7.7116,-28.58561 13.76,-52.39621 13.441,-52.91245 C 1169.143,429.42238 1162.5989,429 1154.9195,429 h -13.9624 l -0.9591,2.25 c -1.0463,2.45438 -5.7739,23.28818 -11.5123,50.73285 -5.2254,24.99134 -5.0318,25.06562 -10.4784,-4.01955 -10.1333,-54.11228 -7.592,-48.93267 -24.0073,-48.93267 -6.875,0 -13.0154,0.3306 -13.6454,0.73468 -1.0535,0.6758 -5.3157,20.61359 -11.9145,55.73408 -3.9576,21.06345 -3.8383,21.17305 -10.3569,-9.51324 -6.5682,-30.91913 -9.6928,-44.54553 -10.5226,-45.88811 -0.8825,-1.42793 -28.1848,-1.51518 -29.0638,-0.0929 -0.4496,0.72744 21.4619,84.93095 27.1329,104.26867 l 0.5202,1.77384 16.6751,-0.27384 L 1079.5,535.5 Z M 1277,483.16536 v -53.95138 l 1.5818,-0.60699 c 2.6209,-1.00574 51.2606,-0.66592 60.7796,0.42464 15.5996,1.78717 24.9462,8.33905 28.2862,19.82822 l 1.5738,5.41354 -0.6621,5.11331 c -0.9078,7.00984 -4.1491,13.33134 -8.1711,15.93549 -4.0576,2.62728 -4.2266,3.89116 -0.7677,5.74232 11.1166,5.94942 16.39,22.81414 11.3477,36.29085 l -2.0317,5.43039 -4.7688,4.46066 c -2.6773,2.50427 -7.3782,5.50638 -10.7183,6.84492 l -5.9494,2.38426 -35.25,0.32057 -35.25,0.32058 z m 76.4409,49.92834 c 3.7413,-1.49897 7.6936,-4.13292 10.6748,-7.11413 l 4.7339,-4.73389 1.5752,-5.30434 c 4.0883,-13.76686 -0.3317,-27.28625 -10.9567,-33.5129 -5.498,-3.22207 -5.4995,-3.1428 0.1423,-7.85871 5.795,-4.84402 7.6555,-9.18445 7.7455,-18.06973 l 0.071,-7 -2.8747,-5.25433 c -3.5349,-6.46107 -7.9285,-9.92032 -15.9216,-12.53573 l -6.1305,-2.00593 -32,-0.10201 -32,-0.102 -0.2588,53.3091 -0.2588,53.3091 34.7588,-0.32213 34.7588,-0.32213 z m -45.2814,-20.40152 -1.2403,-1.4944 0.2904,-8.84889 0.2904,-8.84889 12.9669,-0.2815 c 20.0579,-0.43543 27.8456,6.68281 18.616,17.01572 l -2.917,3.26578 -13.3831,0.3433 -13.3831,0.34329 z m 27.379,-1.14381 c 6.0345,-2.52139 7.2928,-9.87087 2.5091,-14.65465 l -2.9525,-2.95243 -13.2975,0.27935 -13.2976,0.27936 -0.295,7.91161 c -0.1622,4.35138 -0.064,8.51388 0.2186,9.25 L 1308.9372,513 h 11.5635 11.5635 z m -27.4581,-40.95145 c -0.7385,-0.88985 -1.0576,-4.4563 -0.8724,-9.75 L 1307.5,452.5 1319,452.20979 c 14.0316,-0.35411 15.5389,-0.014 18.0273,4.06705 6.0791,9.97032 -0.3436,15.72316 -17.5541,15.72316 h -10.2283 z m 26.7982,-1.98421 c 4.4778,-4.05847 3.0914,-13.83565 -2.1468,-15.1391 -1.2275,-0.30544 -7.1818,-0.42446 -13.2318,-0.26448 l -11,0.29087 -0.297,7.40642 c -0.1633,4.07352 -0.051,8.0487 0.2508,8.83373 l 0.5477,1.42731 11.8974,-0.33373 11.8974,-0.33373 z m 86.7881,67.72062 C 1421.3,535.96667 1421,511.65837 1421,482.3149 v -53.35176 l 23.198,0.26843 23.198,0.26843 7.4337,29.75 c 4.0885,16.3625 7.7652,29.75 8.1703,29.75 0.4051,0 4.0818,-13.3875 8.1703,-29.75 l 7.4337,-29.75 23.2067,-0.26845 23.2067,-0.26845 -0.2587,53.76845 -0.2587,53.76845 -13.7239,0.27805 -13.7239,0.27805 -0.665,-2.64933 c -0.3657,-1.45713 -0.3371,-17.66975 0.064,-36.02805 L 1517.1793,465 h -1.0752 c -0.5914,0 -1.5748,1.9125 -2.1852,4.25 -0.6104,2.3375 -5.0044,18.425 -9.7644,35.75 l -8.6545,31.5 h -12.5 -12.5 l -8.6545,-31.5 c -4.76,-17.325 -9.154,-33.4125 -9.7644,-35.75 -0.6104,-2.3375 -1.5893,-4.25 -2.1752,-4.25 h -1.0652 l 0.7229,33.36102 c 0.3976,18.34856 0.4249,34.54856 0.061,36 L 1448.9619,537 h -13.3143 c -7.3228,0 -13.6143,-0.3 -13.9809,-0.66667 z M 1561,483 v -54.02171 l 42.25,0.26086 42.25,0.26085 v 13 13 l -27,0.5 -27,0.5 v 6.5 6.5 l 24.5,0.5 24.5,0.5 0.2808,12.25 0.2808,12.25 h -23.9084 -23.9083 l -1.1749,1.41563 c -0.6929,0.83493 -1.0508,3.8089 -0.8724,7.25 l 0.3024,5.83437 27,0.5 27,0.5 v 13 13 l -42.25,0.26085 -42.25,0.26086 z m 96.617,52.44428 c -0.9414,-2.45328 -0.7049,-103.75731 0.2457,-105.25635 l 0.8321,-1.31208 33.4026,0.3277 33.4026,0.3277 5.5793,2.24238 c 7.5945,3.05225 13.2501,8.16047 16.6098,15.00212 L 1750.5,452.5 v 8 8 l -3,5.43931 c -1.7753,3.21878 -4.735,6.66531 -7.25,8.4425 -5.1263,3.62239 -5.1613,3.89183 -0.8535,6.55424 6.7325,4.16087 8.2575,8.36728 9.6311,26.56395 0.5397,7.15 1.2554,14.9125 1.5904,17.25 l 0.6091,4.25 h -15.0157 -15.0157 l -1.0979,-3.14922 c -0.6038,-1.73208 -1.1117,-5.44458 -1.1287,-8.25 -0.017,-2.80543 -0.4675,-8.46613 -1.0013,-12.57933 l -0.9704,-7.47855 -2.5188,-2.52145 -2.5189,-2.52145 H 1700.2299 1688.5 l -0.5,18 -0.5,18 -14.633,0.27606 -14.633,0.27607 z m 55.9109,-59.63897 c 3.4918,-1.59093 5.4721,-5.68812 5.4721,-11.32139 0,-8.84409 -2.9597,-10.90542 -17.1547,-11.94751 l -9.6547,-0.70877 -2.0953,1.12136 -2.0953,1.12137 v 10.79815 c 0,5.93898 0.3,11.09815 0.6667,11.46481 1.1742,1.17422 22.1007,0.72977 24.8612,-0.52802 z m 48.9307,59.94469 c -0.2632,-0.6875 -0.3616,-24.875 -0.2186,-53.75 l 0.26,-52.5 14.4234,-0.27851 14.4233,-0.27852 0.8113,1.27852 c 0.9304,1.46603 1.1567,102.79485 0.235,105.19672 L 1791.786,537 h -14.4244 -14.4244 z m 72.2343,0.60961 c -0.3811,-0.38112 -0.6998,-18.05544 -0.7082,-39.27628 -0.01,-21.22083 -0.3647,-39.13326 -0.7918,-39.8054 l -0.7764,-1.22208 -14.9583,-0.27792 L 1802.5,455.5 l -0.2791,-13.25991 -0.2791,-13.2599 46.7791,0.2599 L 1895.5,429.5 v 13 13 l -15.5,0.5 -15.5,0.5 -0.5,40 -0.5,40 -14.0571,0.27628 c -7.7313,0.15195 -14.3688,-0.0356 -14.75,-0.41667 z M 1058.3745,377.5782 c -9.7075,-2.22153 -17.2583,-6.31994 -23.9624,-13.00638 l -6.0879,-6.07182 -2.4121,-7 -2.4121,-7 v -38 -38 l 15.2033,-0.27579 15.2034,-0.2758 0.2966,36.2758 0.2967,36.27579 2,3.39547 c 1.1,1.86751 3.2705,4.34251 4.8233,5.5 l 2.8234,2.10453 h 7.8533 7.8533 l 2.7616,-2.06179 c 1.5188,-1.13398 3.6893,-3.30366 4.8233,-4.82151 l 2.0618,-2.75972 0.5,-36.67849 0.5,-36.67849 15.3035,-0.27633 15.3036,-0.27634 -0.356,39.27634 -0.3559,39.27633 -1.8804,5.2247 c -4.0244,11.18207 -13.6446,20.06352 -26.2071,24.19479 l -6.8077,2.23876 -10.5,0.41087 c -6.8453,0.26786 -12.6321,-0.077 -16.6255,-0.99092 z m 27.0681,-1.03588 C 1114.7984,370.92565 1120,360.06119 1120,304.36351 V 269 h -14.5 -14.5 v 35.28811 35.28811 l -2.25,4.46189 -2.25,4.46189 -4.4619,2.25 -4.4619,2.25 h -5.4724 c -7.1099,0 -13.297,-2.9657 -16.3161,-7.82095 L 1053.5,341.5 1053.1929,305.25 1052.8859,269 H 1038.4429 1024 l 0.02,33.75 c 0.023,37.99252 0.5843,43.97276 4.9654,52.8721 8.4971,17.26011 31.3424,25.72546 56.4571,20.92022 z M 1675,377.50142 c -18.8542,-4.28026 -32.8378,-18.75689 -31.7992,-32.92052 l 0.2992,-4.0809 13.3616,-0.2798 13.3617,-0.27981 1.3883,1.15225 c 0.7636,0.63374 1.3884,2.18762 1.3884,3.45308 0,11.19993 29.7103,14.93615 33.4323,4.20428 2.6068,-7.51604 -1.258,-10.03817 -21.3112,-13.9076 -22.175,-4.27885 -33.1213,-10.61517 -38.2054,-22.11535 l -2.3108,-5.22705 -0.041,-8 c -0.1048,-20.49687 13.7584,-32.38478 39.7173,-34.05837 l 9.2187,-0.59434 8.2226,1.49052 c 19.797,3.5886 32.2466,14.99363 32.6389,29.90027 l 0.1385,5.26192 -12,0.2896 c -14.8024,0.35723 -16.155,0.0578 -16.9939,-3.76163 -0.3592,-1.63565 -1.9654,-4.07811 -3.5693,-5.42769 l -2.9162,-2.45379 -5.4977,-0.6869 c -13.4749,-1.68357 -21.6025,5.08436 -15.4693,12.88145 2.324,2.95444 4.2743,3.57655 22.4464,7.15991 20.1998,3.98322 30.4749,9.69987 35.7043,19.8646 l 2.127,4.13445 0.4533,7.58498 0.4533,7.58497 -1.6138,5.55111 -1.6137,5.55111 -4.6476,5.16923 c -8.2793,9.20857 -18.695,13.00621 -37.3628,13.62278 l -12.5,0.41286 z m 31.662,-0.99477 c 20.6293,-3.93045 31.3487,-15.1992 31.3324,-32.93815 -0.018,-19.50629 -9.6399,-27.43086 -40.8949,-33.68064 -16.2112,-3.24161 -20.1271,-5.00179 -21.459,-9.64564 l -0.9107,-3.17563 1.2385,-2.99008 1.2385,-2.99009 4.403,-1.68152 4.403,-1.68151 5.8315,0.52877 c 8.1336,0.73753 11.9121,2.94291 14.3031,8.34827 l 1.9722,4.45843 12.6902,-0.27943 12.6902,-0.27943 0.3226,-2.27335 c 2.0552,-14.48219 -14.055,-28.54252 -35.916,-31.34608 l -8.9066,-1.14223 -9.038,1.15908 c -25.1336,3.22326 -38.1473,18.06348 -33.966,38.73331 3.2765,16.19726 12.9263,22.99281 40.3115,28.388 21.8659,4.30783 28.1739,11.34853 17.3624,19.37912 l -2.8301,2.10215 -9.6699,-0.0418 -9.6699,-0.0418 -3.2331,-1.7251 c -3.2912,-1.75614 -5.4614,-5.00256 -6.6456,-9.94125 l -0.6594,-2.75 h -13.6048 -13.6048 l 0.4466,5.38535 c 1.9112,23.04566 29.5773,36.38696 62.4631,30.1213 z m -571.5485,-0.86985 -1.1313,-1.3632 0.2589,-52.8868 L 1134.5,268.5 h 16.4254 16.4255 l 10.434,17.5 c 5.7387,9.625 13.4589,22.87472 17.156,29.44382 3.6971,6.5691 7.2879,12.13245 7.9796,12.363 l 1.2575,0.41917 -0.339,-29.86299 -0.339,-29.863 h 14.5 14.5 l 0.2589,52.8868 0.2589,52.8868 -1.1313,1.3632 -1.1314,1.3632 h -14.7226 -14.7225 l -1.505,-1.75 c -1.8391,-2.13858 -21.3796,-34.91075 -29.2163,-49 -3.1357,-5.6375 -6.1709,-10.25 -6.7449,-10.25 h -1.0436 l 0.7336,28.98638 0.7337,28.98638 -1.2562,1.51362 L 1161.7551,377 H 1149 1136.2449 Z M 1162.5,344.762 c 0,-35.14916 -0.1142,-34.81255 7.3513,-21.6774 9.9679,17.53794 29.5618,50.18561 30.9568,51.58062 l 1.3871,1.38713 14.6524,-0.27618 14.6524,-0.27617 0.2588,-53.27828 0.2588,-53.27827 -13.7588,0.27827 -13.7588,0.27828 0.3756,30.75 0.3757,30.75 -1.3757,-0.003 c -0.7566,-0.002 -3.5515,-3.93921 -6.211,-8.75 -2.6595,-4.8108 -10.7398,-18.7594 -17.9562,-30.9969 L 1166.5877,269 H 1150.7939 1135 v 52.83333 c 0,29.05834 0.3125,53.14579 0.6943,53.52768 0.3819,0.38188 6.5694,0.56938 13.75,0.41666 L 1162.5,375.5 Z m 85.6135,30.8748 -1.1313,-1.3632 0.2589,-52.8868 0.2589,-52.8868 14.9238,-0.27773 14.9239,-0.27773 0.8108,1.27773 c 1.2383,1.95134 1.0525,103.51503 -0.1937,105.84347 L 1276.9296,377 h -13.8423 -13.8424 z m 28.7731,-1.00019 1.1315,-1.3634 -0.259,-51.8866 L 1277.5,269.5 h -14.5 -14.5 l -0.2591,51.88661 -0.259,51.8866 1.1315,1.3634 1.1315,1.36339 H 1263 h 12.7551 z m 37.3711,1.11339 C 1312.8654,373.98694 1284.95,269.88995 1285.5913,268.85235 1285.881,268.38356 1293.0491,268 1301.5205,268 h 15.4024 l 0.9954,3.75 c 1.2861,4.84517 6.1442,26.79581 10.0148,45.25 4.0314,19.22084 3.9735,19 4.9833,19 0.4831,0 1.404,-3.0375 2.0464,-6.75 1.6413,-9.48349 11.0205,-57.38206 11.651,-59.5 l 0.521,-1.75 h 14.8736 c 8.1804,0 15.1082,0.3796 15.3949,0.84355 0.7948,1.28599 4.3508,18.17746 9.1634,43.52746 4.0764,21.47214 4.8462,24.58198 5.8281,23.54566 0.2171,-0.22917 3.1478,-13.24167 6.5126,-28.91667 3.3649,-15.675 6.6747,-30.75 7.3553,-33.5 l 1.2373,-5 15.75,-0.27539 15.75,-0.2754 -0.027,2.2754 c -0.049,4.17244 -27.8286,105.06754 -29.1614,105.91275 -1.7174,1.08913 -30.9169,1.08253 -32.6359,-0.007 -1.3979,-0.88627 -5.216,-17.71513 -10.239,-45.12998 -4.7498,-25.92329 -3.8068,-26.90861 -11.544,12.06192 -3.3774,17.01094 -6.7026,31.60603 -7.3893,32.43353 L 1346.7551,377 H 1331 1315.2449 Z m 33.1459,-0.59399 c 0.7656,-1.23876 4.8743,-20.6574 9.5407,-45.09174 5.1101,-26.75729 5.7146,-27.60681 8.5637,-12.03523 4.7009,25.69321 10.9078,55.63299 11.759,56.72096 l 0.9779,1.25 h 15.2551 15.2551 l 0.9512,-1.25 c 0.9814,-1.2897 28.3373,-102.27013 28.3094,-104.5 L 1438,269 h -14.8287 -14.8287 l -2.23,9.75 c -1.2265,5.3625 -4.4568,20.325 -7.1784,33.25 -2.7215,12.925 -5.4322,24.61519 -6.0238,25.9782 l -1.0755,2.47821 -0.8211,-1.47821 c -0.4516,-0.81301 -2.0146,-8.0032 -3.4733,-15.9782 -1.4587,-7.975 -4.4271,-23.2614 -6.5964,-33.96977 -2.1692,-10.70838 -3.9441,-19.60791 -3.9441,-19.77674 0,-0.16882 -6.6177,-0.18243 -14.7061,-0.0302 l -14.7061,0.27673 -1.3261,6.5 c -0.7294,3.575 -3.578,18.425 -6.3302,33 -2.7523,14.575 -5.4749,27.61519 -6.0503,28.9782 l -1.0463,2.47821 -0.7972,-1.47821 c -0.4385,-0.81301 -3.7818,-15.4282 -7.4297,-32.4782 -3.6478,-17.05 -6.9963,-32.35 -7.441,-34 l -0.8087,-3 -15.2549,-0.27645 -15.255,-0.27646 0.5395,1.77646 c 0.2966,0.97705 2.1637,7.85145 4.149,15.27645 14.7733,55.25301 23.7893,87.68577 24.6716,88.75 l 1.0364,1.25 h 15.3185 c 8.4252,0 15.5533,-0.3798 15.8402,-0.84399 z m 99.7099,0.48079 -1.1313,-1.3632 0.2589,-52.8868 0.2589,-52.8868 42.75,-0.26074 42.75,-0.26073 V 281.48926 295 h -26.3776 -26.3775 l -1.1775,1.41882 c -0.6783,0.81733 -1.0482,3.67894 -0.8725,6.75 l 0.3051,5.33118 24.6743,0.2673 24.6744,0.26731 0.5652,2.73269 c 0.8152,3.94089 0.4584,18.33934 -0.5195,20.96485 l -0.8313,2.23215 -24.2816,0.26785 L 1477.5,335.5 v 6.5 6.5 l 27,0.5 27,0.5 0.2812,12.92173 0.2811,12.92172 -1.2811,0.81296 c -0.7047,0.44713 -19.5636,0.81986 -41.9088,0.82828 L 1448.2449,377 Z M 1530.7799,362.75 1531.0598,350 H 1504.7299 1478.4 l -1.2,-1.2 c -1.2446,-1.24463 -1.6574,-10.44454 -0.593,-13.21821 L 1477.214,334 h 24.393 24.393 v -12 -12 h -23.8 -23.8 l -1.2,-1.2 c -0.66,-0.66 -1.2,-3.72 -1.2,-6.8 0,-3.08 0.54,-6.14 1.2,-6.8 l 1.2,-1.2 h 26.3 26.3 V 281.5 269 h -42 -42 v 52.83333 c 0,29.05834 0.3049,53.13826 0.6776,53.51095 0.3727,0.37269 19.1602,0.56019 41.75,0.41667 L 1530.5,375.5 Z m 13.4612,13.4202 -1.2588,-0.79918 0.2588,-53.43551 0.2589,-53.43551 34,0.007 34,0.007 5.5793,2.25062 c 7.3548,2.96679 13.3926,8.26815 16.6244,14.59676 l 2.6237,5.13785 0.4529,7.54371 0.4528,7.5437 -2.2524,5.23573 c -1.395,3.24278 -4.1038,6.9004 -7.1165,9.60905 -5.7151,5.13833 -5.7763,5.45182 -1.5757,8.06781 1.7663,1.1 4.2493,4.09085 5.5176,6.64633 l 2.3062,4.64633 1.352,15.85367 c 0.7436,8.71952 1.6839,16.68659 2.0895,17.70459 1.2146,3.04783 -1.2597,3.61757 -15.7807,3.63377 l -13.727,0.0153 -1.5178,-2.3165 c -0.9916,-1.5133 -1.8254,-6.62751 -2.4049,-14.75 -1.3626,-19.09941 -2.6304,-20.41918 -19.6234,-20.42819 l -10,-0.005 -0.2739,17.95576 -0.2739,17.95576 -1.2261,0.77893 c -1.617,1.02727 -26.8632,1.00932 -28.485,-0.0202 z m 28.5333,-18.0971 0.2743,-17.42691 1.2066,-1.45377 1.2065,-1.45376 10.7605,0.51003 10.7605,0.51002 2.4734,1.62065 c 3.9172,2.56665 4.6291,4.93342 5.6731,18.86226 0.54,7.20353 1.4291,13.93328 1.9759,14.95501 l 0.9942,1.85768 14.2003,-0.27716 14.2003,-0.27715 -0.3071,-2 c -0.1689,-1.1 -0.9259,-9.10753 -1.6823,-17.7945 l -1.3753,-15.79451 -2.0701,-4.20549 c -1.1386,-2.31303 -3.869,-5.47218 -6.0677,-7.02035 -4.7307,-3.33115 -4.9014,-4.16166 -1.2475,-6.07019 7.0543,-3.68469 11.3979,-11.32133 12.0099,-21.11496 l 0.4373,-7 -2.2291,-5.90685 c -2.8757,-7.62004 -8.7937,-13.58682 -16.5613,-16.69788 l -5.9068,-2.36579 -33.75,-0.32521 -33.75,-0.3252 v 52.8938 c 0,29.09159 0.3121,53.20593 0.6936,53.58742 0.3815,0.3815 6.794,0.569 14.25,0.41667 L 1572.5,375.5 Z m 0.6597,-42.38424 c -0.2767,-0.72113 -0.3751,-6.45863 -0.2186,-12.75 L 1573.5,291.5 l 10.5,-0.28897 10.5,-0.28898 4.1588,1.58685 4.1587,1.58684 1.5913,3.35326 c 6.0327,12.71302 -0.7553,19.551 -19.4081,19.551 h -11.0635 z m 28.2959,-2.96159 2.77,-2.77272 v -6.06386 -6.06386 l -2.7313,-2.34933 c -3.2691,-2.81203 -8.5128,-3.70698 -19.2687,-3.28865 l -8,0.31115 -0.287,10.4324 c -0.1578,5.73781 -0.045,11.06299 0.2507,11.83373 l 0.5378,1.40133 11.9793,-0.33373 L 1598.96,315.5 Z M 1772.2261,375.82608 1771,374.6 v -19.86574 c 0,-13.04349 -0.3951,-20.61586 -1.1505,-22.05 -0.6327,-1.20134 -9.4077,-15.81137 -19.5,-32.46672 C 1740.2573,283.56219 1732,269.48907 1732,268.94393 c 0,-0.62699 6.3028,-0.89063 17.1545,-0.71754 l 17.1545,0.27361 10.0821,17.75 c 5.5452,9.7625 10.5382,17.73614 11.0956,17.71921 0.5573,-0.0169 5.3057,-8.00444 10.5519,-17.75 l 9.5386,-17.71921 64.7405,-0.2573 64.7405,-0.25731 -0.2791,13.25731 -0.2791,13.2573 -13.5,0.24372 c -7.425,0.13404 -14.5125,0.48012 -15.75,0.76905 l -2.25,0.52533 v 39.87396 39.87396 l -1.5818,0.60699 C 1902.5482,376.72686 1896.285,377 1889.5,377 c -6.785,0 -13.0482,-0.27314 -13.9182,-0.60699 L 1874,375.78602 V 335.91206 296.0381 l -2.25,-0.52533 c -1.2375,-0.28893 -8.325,-0.63501 -15.75,-0.76905 l -13.5,-0.24372 -0.2817,-11.75 c -0.155,-6.4625 -0.6322,-11.75 -1.0605,-11.75 -0.4282,0 -9.3014,14.2875 -19.7182,31.75 l -18.9396,31.75 -0.5,21 -0.5,21 -14.0239,0.27608 -14.0239,0.27608 z M 1801,355 l 0.5,-20.5 1.3598,-2.38935 c 0.7478,-1.31414 8.8942,-15.03914 18.103,-30.5 9.2088,-15.46086 17.2753,-29.12315 17.9254,-30.36065 l 1.1822,-2.25 h -15.8319 -15.8319 l -8.4533,15.64621 c -4.6493,8.60541 -9.2931,17.02735 -10.3196,18.71543 l -1.8663,3.06923 -2.1337,-2.61454 c -1.1735,-1.438 -6.1755,-9.85995 -11.1155,-18.71544 L 1765.5364,269 h -16.3034 -16.3034 l 1.0836,2.02464 c 0.5959,1.11355 9.3868,15.74535 19.5352,32.5151 L 1772,334.0302 v 20.31824 c 0,24.13131 -1.6485,21.7675 14.9436,21.42852 L 1800.5,375.5 Z m 102.7618,-18.9117 0.2617,-39.4117 1.1107,-1.3383 1.1107,-1.3383 H 1921.1224 1936 V 281.5 269 h -46.5 -46.5 v 12.5 12.5 h 14.8 14.8 l 1.2,1.2 1.2,1.2 v 39.13333 c 0,21.52334 0.3121,39.44547 0.6936,39.82696 0.3815,0.3815 6.794,0.569 14.25,0.41667 L 1903.5,375.5 Z m 42.9049,40.24503 C 1946.3,375.96667 1946,351.43684 1946,321.8226 v -53.84407 l 42.75,0.26073 42.75,0.26074 v 13 13 l -27,0.5 -27,0.5 v 6.5 6.5 l 24.5,0.5 24.5,0.5 v 12.5 12.5 l -24.5,0.5 -24.5,0.5 v 6.5 6.5 l 27,0.5 27,0.5 0.2817,12.35939 0.2816,12.3594 -1.1541,1.3906 -1.1541,1.39061 h -41.2109 c -22.666,0 -41.5109,-0.3 -41.8775,-0.66667 z m 83.1165,-1.17818 1.2832,-0.81423 -0.2832,-11.92046 L 2030.5,350.5 l -27,-0.5 -27,-0.5 v -7.5 -7.5 l 24.5,-0.5 24.5,-0.5 V 322 310.5 l -24.5,-0.5 -24.5,-0.5 -0.2938,-7.25 c -0.3568,-8.80346 -4.449,-7.5727 27.2938,-8.20887 l 27,-0.54113 v -12 -12 l -41.75,-0.26097 -41.75,-0.26097 v 52.8443 c 0,29.06437 0.3,53.14431 0.6667,53.51097 0.9645,0.96459 80.5878,0.79181 82.1165,-0.17818 z m 39.3731,0.53312 -1.1328,-1.36487 -0.2617,-39.4117 L 2067.5,295.5 2052,295 l -15.5,-0.5 v -13 -13 l 47.25,-0.25979 47.25,-0.25979 V 281.49021 295 h -14.8776 -14.8775 l -1.1107,1.3383 -1.1107,1.3383 -0.2617,39.4117 -0.2618,39.4117 -14.1055,0.27658 -14.1055,0.27657 z M 2098,336 c 0.275,-21.725 0.8641,-40.0625 1.309,-40.75 l 0.809,-1.25 h 14.941 14.941 v -12.50999 -12.50998 l -46.25,0.25998 -46.25,0.25999 v 12 12 l 13.5,0.24372 c 7.425,0.13404 14.5125,0.48012 15.75,0.76905 l 2.25,0.52533 v 39.81429 c 0,21.89785 0.3121,40.12641 0.6936,40.5079 0.3815,0.3815 6.794,0.569 14.25,0.41667 L 2097.5,375.5 Z"
         id="path2755" />
      <path
         style="fill:#041b57"
         d="M 1169.1732,698.96595 C 1113.0533,691.32375 1104.5843,609.374 1158,590.84862 l 6.5,-2.2543 14,-0.0472 14,-0.0472 6.6086,2.28446 c 21.9119,7.57456 34.1105,24.46525 35.5439,49.21554 l 0.5502,9.5 -1.5801,7.40594 c -6.2927,29.49519 -32.2624,46.44312 -64.4494,42.06001 z m 19.5584,-26.61417 c 15.4004,-5.47054 20.9462,-32.63737 10.0048,-49.00912 L 1195.5,618.5 l -5.4293,-2.75 -5.4293,-2.75 -5.0707,0.006 c -15.5286,0.0171 -25.2803,10.43299 -26.353,28.14789 -1.4879,24.57084 14.5381,38.64939 35.5139,31.19831 z M 1024.2412,643.75 1024.5,590.5 h 29 29 l 6.718,1.85238 c 17.5289,4.83334 26.9541,18.96633 25.497,38.23258 l -0.5522,7.30228 -2.7406,6.10686 c -3.3807,7.53304 -10.287,14.0254 -18.2206,17.12848 l -5.7016,2.23008 -16,0.42453 c -8.8,0.23349 -16.5625,0.88424 -17.25,1.44611 l -1.25,1.02159 V 681.62244 697 h -14.5088 -14.5087 z m 57.8142,-7.34338 c 10.1931,-10.19476 2.7535,-21.16509 -15.0174,-22.14432 l -9.6645,-0.53255 -2.1868,1.17031 -2.1867,1.17031 v 10.38303 c 0,5.71066 0.2902,11.13931 0.6449,12.06365 l 0.6449,1.68063 12.3364,-0.34884 12.3364,-0.34884 z m 157.9593,49.35347 0.015,-11.26009 11.6188,-13 c 6.3903,-7.15 17.8697,-19.88762 25.5098,-28.30583 7.6401,-8.4182 13.6285,-15.7307 13.3076,-16.25 C 1290.1258,616.39448 1279.8793,616 1265.941,616 H 1242 v -13.0104 -13.0104 l 44.25,0.2604 44.25,0.2604 0.2554,11 0.2554,11 -22.7554,25.31305 c -29.013,32.27395 -28.6145,31.79687 -27.7388,33.21375 l 0.7349,1.18913 23.2164,-0.72545 c 12.769,-0.399 24.201,-0.41295 25.4044,-0.031 l 2.188,0.69444 -0.2801,12.17304 -0.2802,12.17304 -45.75,0.26009 -45.75,0.26009 z m 104.4439,9.98991 c -0.2633,-0.6875 -0.3616,-24.65 -0.2186,-53.25 l 0.26,-52 h 15.5 15.5 l 9.3952,15.5 c 5.1674,8.525 13.3099,22.45169 18.0946,30.94821 4.7847,8.49652 9.2194,15.62152 9.8548,15.83333 l 1.1554,0.38513 v -31.61236 -31.61236 l 13.25,0.27902 13.25,0.27903 0.2588,53.27544 0.2588,53.27544 -15.7056,-0.27544 -15.7056,-0.27544 -7.8287,-13 c -4.3057,-7.15 -12.3685,-20.9875 -17.9173,-30.75 -5.5488,-9.7625 -10.6827,-17.75 -11.4088,-17.75 h -1.3202 l 0.5915,31 0.5915,31 h -13.6886 -13.6886 z m 104.9815,-0.47283 c 0.3257,-0.97744 8.8331,-24.95217 18.9053,-53.27717 l 18.3131,-51.5 h 17.9208 17.9207 l 19.2003,52 c 10.5601,28.6 19.2226,52.57422 19.25,53.27605 l 0.05,1.27604 -15.1678,-0.27604 -15.1679,-0.27605 -1.9821,-6 c -2.6025,-7.87809 -1.2644,-7.46716 -24.3732,-7.48469 L 1484.118,683 l -0.809,1.24846 c -0.4449,0.68666 -1.7103,3.72416 -2.8119,6.75 l -2.0028,5.50154 -14.8232,0.27717 -14.8231,0.27717 z m 67.9322,-37.07052 c 1.284,-2.07765 -12.039,-40.93997 -13.5256,-39.4533 -1.2923,1.29223 -12.8072,38.50149 -12.2126,39.46358 0.636,1.02906 25.1019,1.01929 25.7382,-0.0103 z m 52.2944,38.12668 c -0.833,-0.83295 -0.891,-102.58536 -0.06,-104.75154 L 1570.214,590 h 14.738 14.738 l 1.5165,1.75 c 1.5815,1.82506 21.8476,36.18796 30.4889,51.69675 2.7418,4.92071 5.507,9.12071 6.1448,9.33333 L 1639,653.16667 V 621.58333 590 h 13.5 13.5 v 53.52539 53.5254 l -15.6694,-0.2754 L 1634.6612,696.5 1622.4898,676 c -6.6943,-11.275 -14.7572,-25.13698 -17.9175,-30.80439 -3.1603,-5.66742 -6.2694,-10.12939 -6.9091,-9.91551 l -1.1632,0.38889 0.3772,30.66551 0.3772,30.6655 h -13.4605 c -7.4033,0 -13.7606,-0.3 -14.1272,-0.66667 z M 1609,581.55042 c 0,-0.24727 2.6375,-4.63477 5.861,-9.75 l 5.861,-9.30042 13.139,-0.27903 c 7.2265,-0.15346 13.139,-0.007 13.139,0.32602 0,0.33277 -3.9151,4.84583 -8.7001,10.02902 L 1629.5998,582 h -10.2999 C 1613.6349,582 1609,581.79769 1609,581.55042 Z m -401.1798,-43.6019 C 1187.1408,535.08776 1173.1666,522.40547 1172.6172,506 l -0.1172,-3.5 13.2637,-0.27912 13.2637,-0.27912 0.9704,2.77912 c 1.8696,5.35398 3.551,7.69554 6.9527,9.6822 l 3.4299,2.00321 9.0598,0.0469 9.0598,0.0468 3.1416,-1.71962 c 1.7923,-0.98105 3.6081,-3.05781 4.2277,-4.83538 l 1.0862,-3.11576 -1.4418,-3.45061 c -1.8386,-4.40053 -4.5617,-5.52648 -21.0137,-8.68877 -29.8258,-5.73291 -40.5,-14.86198 -40.5,-34.63745 0,-43.16227 83.8086,-45.58776 88.1943,-2.55241 l 0.3057,3 -13.1541,0.27836 -13.1541,0.27835 -1.8459,-3.71382 c -1.0152,-2.0426 -3.1164,-4.64286 -4.6692,-5.77836 L 1226.8533,449.5 h -8.3533 -8.3533 l -2.8234,2.09997 -2.8233,2.09997 -0.3125,4.25224 -0.3125,4.25223 1.6348,1.80642 c 2.4271,2.68193 5.5719,3.71394 20.9902,6.88816 23.648,4.86851 31.6076,9.04959 36.8896,19.37773 l 2.9104,5.6908 v 8.28293 8.28292 l -2.1994,4.98332 c -7.0167,15.89861 -29.651,24.11569 -56.2804,20.43183 z m -162.1905,-3.67468 c -5.671,-19.33772 -27.5825,-103.54123 -27.1329,-104.26867 0.879,-1.42231 28.1813,-1.33506 29.0638,0.0929 0.8298,1.34258 3.9544,14.96898 10.5226,45.88811 6.5186,30.68629 6.3993,30.57669 10.3569,9.51324 6.5988,-35.12049 10.861,-55.05828 11.9145,-55.73408 0.63,-0.40408 6.7704,-0.73468 13.6454,-0.73468 16.4153,0 13.874,-5.17961 24.0073,48.93267 5.4466,29.08517 5.253,29.01089 10.4784,4.01955 5.7384,-27.44467 10.466,-48.27847 11.5123,-50.73285 l 0.9591,-2.25 h 13.9624 c 7.6794,0 14.2235,0.42238 14.5426,0.93862 0.319,0.51624 -5.7294,24.32684 -13.441,52.91245 -7.7116,28.58561 -14.0211,52.23823 -14.0211,52.56138 0,1.02107 -32.8438,0.64934 -33.4793,-0.37892 -0.6148,-0.99485 -8.0781,-37.76357 -11.2721,-55.53353 l -1.7974,-10 h -1.4537 -1.4538 l -4.1927,22 c -2.306,12.1 -5.2408,26.95 -6.5219,33 l -2.3291,11 -16.675,0.27384 -16.6751,0.27384 z M 1278.2412,482.8091 1278.5,429.5 l 32,0.102 32,0.10201 6.1305,2.00593 c 7.9931,2.61541 12.3867,6.07466 15.9216,12.53573 l 2.8747,5.25433 -0.071,7 c -0.09,8.88528 -1.9505,13.22571 -7.7455,18.06973 -5.6418,4.71591 -5.6403,4.63664 -0.1423,7.85871 10.625,6.22665 15.045,19.74604 10.9567,33.5129 l -1.5752,5.30434 -4.7339,4.73389 c -2.9812,2.98121 -6.9335,5.61516 -10.6748,7.11413 l -5.9409,2.38024 -34.7588,0.32213 -34.7588,0.32213 z m 60.8417,27.42512 c 9.2296,-10.33291 1.4419,-17.45115 -18.616,-17.01572 L 1307.5,493.5 l -0.2904,8.84889 -0.2904,8.84889 1.2403,1.4944 1.2402,1.49441 13.3831,-0.34329 13.3831,-0.3433 z m -6.313,-39.30384 c 5.5675,-1.94084 7.6462,-9.0956 4.2574,-14.65354 -2.4884,-4.08109 -3.9957,-4.42116 -18.0273,-4.06705 l -11.5,0.29021 -0.292,8.34692 c -0.1852,5.2937 0.1339,8.86015 0.8724,9.75 L 1309.2449,472 h 10.2283 c 5.6256,0 11.6091,-0.48133 13.2967,-1.06962 z M 1058.3745,376.50871 C 1029.2273,370.16918 1024.0537,359.0613 1024.0201,302.75 L 1024,269 h 14.4429 14.443 l 0.307,36.25 0.3071,36.25 2.2877,3.67905 c 3.0191,4.85525 9.2062,7.82095 16.3161,7.82095 h 5.4724 l 4.4619,-2.25 4.4619,-2.25 2.25,-4.46189 2.25,-4.46189 V 304.28811 269 h 14.5 14.5 v 35.36351 c 0,37.04376 -0.4814,42.6397 -4.4056,51.21129 -7.7441,16.91536 -33.0797,26.1844 -57.2199,20.93391 z m 617.1974,-0.0725 c -18.081,-3.59064 -30.1363,-15.13794 -31.373,-30.05088 L 1643.7523,341 h 13.6048 13.6048 l 0.6594,2.75 c 1.1842,4.93869 3.3544,8.18511 6.6456,9.94125 l 3.2331,1.7251 9.6699,0.0418 9.6699,0.0418 2.8301,-2.10215 c 10.8115,-8.03059 4.5035,-15.07129 -17.3624,-19.37912 -27.3852,-5.39519 -37.035,-12.19074 -40.3115,-28.388 -4.1813,-20.66983 8.8324,-35.51005 33.966,-38.73331 l 9.038,-1.15908 8.9066,1.14223 c 21.861,2.80356 37.9712,16.86389 35.916,31.34608 L 1733.5,300.5 l -12.6902,0.27943 -12.6902,0.27943 -1.9722,-4.45843 c -2.391,-5.40536 -6.1695,-7.61074 -14.3031,-8.34827 l -5.8315,-0.52877 -4.403,1.68151 -4.403,1.68152 -1.2385,2.99009 -1.2385,2.99008 0.9107,3.17563 c 1.3319,4.64385 5.2478,6.40403 21.459,9.64564 31.255,6.24978 40.877,14.17435 40.8949,33.68064 0.024,25.5024 -27.2358,39.85537 -62.4225,32.86773 z m -539.8776,-1.07522 C 1135.3125,374.97912 1135,350.89167 1135,321.83333 V 269 h 15.7939 15.7938 l 13.1207,22.25 c 7.2164,12.2375 15.2967,26.1861 17.9562,30.9969 2.6595,4.81079 5.4544,8.74829 6.211,8.75 l 1.3757,0.003 -0.3757,-30.75 -0.3756,-30.75 13.7588,-0.27828 13.7588,-0.27827 -0.2588,53.27827 -0.2588,53.27828 -14.6524,0.27617 -14.6524,0.27618 -1.3871,-1.38713 c -1.395,-1.39501 -20.9889,-34.04268 -30.9568,-51.58062 -7.4655,-13.13515 -7.3513,-13.47176 -7.3513,21.6774 V 375.5 l -13.0557,0.27767 c -7.1806,0.15272 -13.3681,-0.0348 -13.75,-0.41666 z m 113.4191,-0.7244 -1.1315,-1.3634 0.259,-51.8866 L 1248.5,269.5 h 14.5 14.5 l 0.2591,51.88661 0.259,51.8866 -1.1315,1.3634 L 1275.7551,376 H 1263 1250.2449 Z m 66.0951,0.11339 c -0.8823,-1.06423 -9.8983,-33.49699 -24.6716,-88.75 -1.9853,-7.425 -3.8524,-14.2994 -4.149,-15.27645 l -0.5395,-1.77646 15.255,0.27646 15.2549,0.27645 0.8087,3 c 0.4447,1.65 3.7932,16.95 7.441,34 3.6479,17.05 6.9912,31.66519 7.4297,32.4782 l 0.7972,1.47821 1.0463,-2.47821 c 0.5754,-1.36301 3.298,-14.4032 6.0503,-28.9782 2.7522,-14.575 5.6008,-29.425 6.3302,-33 l 1.3261,-6.5 14.7061,-0.27673 c 8.0884,-0.15221 14.7061,-0.1386 14.7061,0.0302 0,0.16883 1.7749,9.06836 3.9441,19.77674 2.1693,10.70837 5.1377,25.99477 6.5964,33.96977 1.4587,7.975 3.0217,15.16519 3.4733,15.9782 l 0.8211,1.47821 1.0755,-2.47821 c 0.5916,-1.36301 3.3023,-13.0532 6.0238,-25.9782 2.7216,-12.925 5.9519,-27.8875 7.1784,-33.25 l 2.23,-9.75 H 1423.1713 1438 l 0.016,1.25 c 0.028,2.22987 -27.328,103.2103 -28.3094,104.5 l -0.9512,1.25 H 1393.5 1378.2449 l -0.9779,-1.25 c -0.8512,-1.08797 -7.0581,-31.02775 -11.759,-56.72096 -2.8491,-15.57158 -3.4536,-14.72206 -8.5637,12.03523 -4.6664,24.43434 -8.7751,43.85298 -9.5407,45.09174 -0.2869,0.46419 -7.415,0.84399 -15.8402,0.84399 h -15.3185 z m 132.4691,0.59428 C 1447.3049,374.97159 1447,350.89167 1447,321.83333 V 269 h 42 42 v 12.5 12.5 h -26.3 -26.3 l -1.2,1.2 c -0.66,0.66 -1.2,3.72 -1.2,6.8 0,3.08 0.54,6.14 1.2,6.8 l 1.2,1.2 h 23.8 23.8 v 12 12 h -24.393 -24.393 l -0.607,1.58179 c -1.0644,2.77367 -0.6516,11.97358 0.593,13.21821 l 1.2,1.2 h 26.3299 26.3299 l -0.2799,12.75 -0.2799,12.75 -41.0724,0.26095 c -22.5898,0.14352 -41.3773,-0.044 -41.75,-0.41667 z m 97.016,0.016 C 1544.3121,374.9788 1544,350.86446 1544,321.77287 v -52.8938 l 33.75,0.3252 33.75,0.32521 5.9068,2.36579 c 7.7676,3.11106 13.6856,9.07784 16.5613,16.69788 l 2.2291,5.90685 -0.4373,7 c -0.612,9.79363 -4.9556,17.43027 -12.0099,21.11496 -3.6539,1.90853 -3.4832,2.73904 1.2475,6.07019 2.1987,1.54817 4.9291,4.70732 6.0677,7.02035 l 2.0701,4.20549 1.3753,15.79451 c 0.7564,8.68697 1.5134,16.6945 1.6823,17.7945 l 0.3071,2 -14.2003,0.27715 -14.2003,0.27716 -0.9942,-1.85768 c -0.5468,-1.02173 -1.4359,-7.75148 -1.9759,-14.95501 -1.044,-13.92884 -1.7559,-16.29561 -5.6731,-18.86226 l -2.4734,-1.62065 -10.7605,-0.51002 -10.7605,-0.51003 -1.2065,1.45376 -1.2066,1.45377 -0.2743,17.42691 -0.2744,17.4269 -13.5564,0.27696 c -7.456,0.15233 -13.8685,-0.0352 -14.25,-0.41667 z m 54.7721,-59.78151 c 6.0384,-2.523 8.3411,-10.96888 4.9431,-18.12978 l -1.5913,-3.35326 -4.1587,-1.58684 -4.1588,-1.58685 -10.5,0.28898 -10.5,0.28897 -0.2845,11.43886 c -0.1565,6.29137 -0.058,12.02887 0.2186,12.75 L 1573.9372,317 h 11.0635 c 7.2995,0 12.2208,-0.48353 14.465,-1.42122 z m 173.2279,59.78151 C 1772.3121,374.9788 1772,365.52346 1772,354.34844 V 334.0302 l -18.4516,-30.49046 c -10.1484,-16.76975 -18.9393,-31.40155 -19.5352,-32.5151 L 1732.9296,269 h 16.3034 16.3034 l 8.9818,16.10089 c 4.94,8.85549 9.942,17.27744 11.1155,18.71544 l 2.1337,2.61454 1.8663,-3.06923 c 1.0265,-1.68808 5.6703,-10.11002 10.3196,-18.71543 L 1808.4066,269 h 15.8319 15.8319 l -1.1822,2.25 c -0.6501,1.2375 -8.7166,14.89979 -17.9254,30.36065 -9.2088,15.46086 -17.3552,29.18586 -18.103,30.5 L 1801.5,334.5 1801,355 l -0.5,20.5 -13.5564,0.27696 c -7.456,0.15233 -13.8685,-0.0352 -14.25,-0.41667 z m 103,0 C 1875.3121,374.9788 1875,357.05667 1875,335.53333 V 296.4 l -1.2,-1.2 -1.2,-1.2 H 1857.8 1843 V 281.5 269 h 46.5 46.5 v 12.5 12.5 h -14.8776 -14.8775 l -1.1107,1.3383 -1.1107,1.3383 -0.2617,39.4117 -0.2618,39.4117 -13.5564,0.27696 c -7.456,0.15233 -13.8685,-0.0352 -14.25,-0.41667 z m 71.9731,-0.027 C 1947.3,374.96667 1947,350.88673 1947,321.82236 v -52.8443 l 41.75,0.26097 41.75,0.26097 v 12 12 l -27,0.54113 c -31.7428,0.63617 -27.6506,-0.59459 -27.2938,8.20887 l 0.2938,7.25 24.5,0.5 24.5,0.5 v 11.5 11.5 l -24.5,0.5 -24.5,0.5 v 7.5 7.5 l 27,0.5 27,0.5 0.2832,11.92046 0.2832,11.92046 -1.2832,0.81423 c -1.5287,0.96999 -81.152,1.14277 -82.1165,0.17818 z m 122.0269,0.027 C 2069.3121,374.9788 2069,356.75024 2069,334.85239 V 295.0381 l -2.25,-0.52533 c -1.2375,-0.28893 -8.325,-0.63501 -15.75,-0.76905 L 2037.5,293.5 v -12 -12 l 46.25,-0.25999 46.25,-0.25998 V 281.49001 294 h -14.941 -14.941 l -0.809,1.25 c -0.4449,0.6875 -1.034,19.025 -1.309,40.75 l -0.5,39.5 -13.5564,0.27696 c -7.456,0.15233 -13.8685,-0.0352 -14.25,-0.41667 z"
         id="path2754" />
    </g>
  </g>
</svg>
